<?xml version="1.0" standalone="no"?>
<!DOCTYPE svg PUBLIC "-//W3C//DTD SVG 20010904//EN"
 "http://www.w3.org/TR/2001/REC-SVG-20010904/DTD/svg10.dtd">
<svg version="1.0" xmlns="http://www.w3.org/2000/svg"
 width="2100.000000pt" height="1500.000000pt" viewBox="0 0 2100.000000 1500.000000"
 preserveAspectRatio="xMidYMid meet">

<g transform="translate(0.000000,1500.000000) scale(0.100000,-0.100000)"
fill="#000000" stroke="none">
<path d="M10300 10174 c-263 -23 -439 -57 -629 -120 -563 -187 -1036 -615
-1317 -1189 -112 -230 -178 -453 -215 -725 -16 -119 -16 -477 0 -590 55 -393
176 -708 392 -1025 244 -358 499 -586 844 -755 272 -134 526 -201 875 -231
185 -16 536 -6 708 20 701 107 1263 483 1644 1101 62 100 108 183 108 195 0 6
-476 245 -488 245 -5 0 -44 -53 -87 -117 -255 -384 -457 -575 -770 -728 -469
-228 -1013 -272 -1475 -119 -411 136 -779 461 -975 860 -104 212 -184 537
-185 752 l0 62 2071 0 2070 0 -5 68 c-3 37 -8 108 -11 157 -32 487 -210 944
-510 1305 -385 462 -883 735 -1490 815 -116 15 -462 27 -555 19z m504 -564
c389 -66 713 -228 972 -485 202 -199 333 -433 422 -752 l20 -73 -1714 0 -1714
0 6 28 c14 57 88 251 133 347 259 549 747 889 1369 955 127 13 368 4 506 -20z"/>
</g>
</svg>
